<svg width="498" height="294" viewBox="0 0 498 294" fill="none" xmlns="http://www.w3.org/2000/svg">
<g opacity="0.8">
<path opacity="0.8" d="M369.991 277.735L490.482 331.98L490.109 332.806L369.618 278.561L369.991 277.735Z" fill="white"/>
<path opacity="0.8" d="M241.302 229.901L369.972 277.699L369.652 278.551L240.982 230.754L241.302 229.901Z" fill="white"/>
<path opacity="0.8" d="M241.401 229.701L240.876 230.983L490.04 333.033L490.565 331.751L241.401 229.701Z" fill="white"/>
<path opacity="0.8" d="M241.299 229.926L240.92 230.749L364.526 287.661L364.905 286.838L241.299 229.926Z" fill="white"/>
<path opacity="0.8" d="M369.564 277.959L364.48 287.082L364.899 287.316L369.983 278.193L369.564 277.959Z" fill="white"/>
<path opacity="0.8" d="M364.879 286.819L490.459 331.979L490.139 332.832L364.586 287.672L364.879 286.819Z" fill="white"/>
<path opacity="0.8" d="M241.299 229.926L240.92 230.749L364.526 287.661L364.905 286.838L241.299 229.926Z" fill="white"/>
<path opacity="0.8" d="M369.564 277.959L364.48 287.082L364.899 287.316L369.983 278.193L369.564 277.959Z" fill="white"/>
<path opacity="0.8" d="M364.879 286.819L490.459 331.979L490.139 332.832L364.586 287.672L364.879 286.819Z" fill="white"/>
<path opacity="0.8" d="M404.686 -15.7228L404.366 -14.3475L673.601 48.3631L673.921 46.9878L404.686 -15.7228Z" fill="white"/>
<path opacity="0.8" d="M477.896 -44.756L477.294 -43.5083L724.969 76.0784L725.572 74.8307L477.896 -44.756Z" fill="white"/>
<path opacity="0.8" d="M477.895 -44.6776L673.963 47.108L673.457 48.2004L477.389 -43.5852L477.895 -44.6776Z" fill="white"/>
<path opacity="0.8" d="M477.118 -44.3268L478.157 -43.9272L408.548 138.792L407.509 138.392L477.118 -44.3268Z" fill="white"/>
<path opacity="0.8" d="M404.869 -15.0656L403.884 -15.0419L407.584 138.591L408.57 138.568L404.869 -15.0656Z" fill="white"/>
<path opacity="0.8" d="M407.851 138.528L363.903 287.009L364.848 287.289L408.796 138.808L407.851 138.528Z" fill="white"/>
<path opacity="0.8" d="M407.851 138.528L363.903 287.009L364.848 287.289L408.796 138.808L407.851 138.528Z" fill="white"/>
<path opacity="0.8" d="M407.74 138.099L408.273 139.085L241.402 230.818L240.869 229.859L407.74 138.099Z" fill="white"/>
<path opacity="0.8" d="M407.56 138.472L408.492 138.712L370.264 278.269L369.359 278.029L407.56 138.472Z" fill="white"/>
<path opacity="0.8" d="M408.555 138.292L407.476 138.75L489.772 332.558L490.851 332.1L408.555 138.292Z" fill="white"/>
<path opacity="0.8" d="M673.478 47.0559L407.761 137.888L408.218 139.224L673.935 48.3921L673.478 47.0559Z" fill="white"/>
<path opacity="0.8" d="M408.223 138.041L602.453 206.727L602.053 207.819L407.823 139.133L408.223 138.041Z" fill="white"/>
<path opacity="0.8" d="M478.262 -44.4365L602.882 206.968L601.63 207.608L476.983 -43.8237L478.262 -44.4365Z" fill="white"/>
<path opacity="0.8" d="M602.055 206.653L602.481 207.905L364.935 287.888L364.535 286.636L602.055 206.653Z" fill="white"/>
<path opacity="0.8" d="M602.055 206.653L602.481 207.905L364.935 287.888L364.535 286.636L602.055 206.653Z" fill="white"/>
<path opacity="0.8" d="M602.062 206.661L369.611 277.516L369.984 278.739L602.434 207.884L602.062 206.661Z" fill="white"/>
<path opacity="0.8" d="M601.866 206.938L602.639 207.604L490.672 332.747L489.926 332.054L601.866 206.938Z" fill="white"/>
<path opacity="0.8" d="M276.835 93.4741L408.168 138.155L407.875 139.034L276.542 94.3533L276.835 93.4741Z" fill="white"/>
<path opacity="0.8" d="M477.206 -44.7275L276.373 93.4741L277.098 94.5276L477.931 -43.6739L477.206 -44.7275Z" fill="white"/>
<path opacity="0.8" d="M404.119 -15.4146L404.785 -14.642L277.021 94.3019L276.355 93.5293L404.119 -15.4146Z" fill="white"/>
<path opacity="0.8" d="M277.232 93.6567L365.276 287.006L364.184 287.486L276.139 94.163L277.232 93.6567Z" fill="white"/>
<path opacity="0.8" d="M277.232 93.6567L365.276 287.006L364.184 287.486L276.139 94.163L277.232 93.6567Z" fill="white"/>
<path opacity="0.8" d="M276.246 93.781L277.125 94.0208L241.561 230.46L240.682 230.221L276.246 93.781Z" fill="white"/>
<path opacity="0.8" d="M277.173 93.6587L276.15 94.1757L369.278 278.401L370.3 277.884L277.173 93.6587Z" fill="white"/>
<path opacity="0.8" d="M4.07129 316.108L118.169 274.731L4.07129 316.108Z" fill="white"/>
<path opacity="0.8" d="M240.947 229.757L3.84839 315.41L4.29184 316.638L241.39 230.985L240.947 229.757Z" fill="white"/>
<path opacity="0.8" d="M276.067 93.7095L169.582 360.649L170.918 361.182L277.403 94.2427L276.067 93.7095Z" fill="white"/>
<path opacity="0.8" d="M364.5 286.643L170.039 360.328L170.454 361.424L364.915 287.74L364.5 286.643Z" fill="white"/>
<path opacity="0.8" d="M364.5 286.643L170.039 360.328L170.454 361.424L364.915 287.74L364.5 286.643Z" fill="white"/>
<path opacity="0.8" d="M240.735 230.116L169.823 360.627L170.666 361.085L241.577 230.574L240.735 230.116Z" fill="white"/>
<path opacity="0.8" d="M369.597 277.574L370.05 278.693L170.492 361.447L170.039 360.328L369.597 277.574Z" fill="white"/>
<path opacity="0.8" d="M365.914 279.381C365.626 278.365 365.743 277.277 366.24 276.345C366.738 275.414 367.578 274.712 368.582 274.388C369.587 274.063 370.679 274.141 371.627 274.605C372.575 275.069 373.306 275.883 373.667 276.876C373.986 277.911 373.885 279.031 373.387 279.992C372.889 280.954 372.032 281.682 371.003 282.018C369.978 282.337 368.869 282.239 367.917 281.745C366.964 281.251 366.245 280.401 365.914 279.381Z" fill="white"/>
<path opacity="0.8" d="M365.914 279.381C365.626 278.365 365.743 277.277 366.24 276.345C366.738 275.414 367.578 274.712 368.582 274.388C369.587 274.063 370.679 274.141 371.627 274.605C372.575 275.069 373.306 275.883 373.667 276.876C373.986 277.911 373.885 279.031 373.387 279.992C372.889 280.954 372.032 281.682 371.003 282.018C369.978 282.337 368.869 282.239 367.917 281.745C366.964 281.251 366.245 280.401 365.914 279.381Z" fill="white"/>
<path opacity="0.8" d="M237.245 231.59C237.003 230.821 236.995 229.998 237.221 229.224C237.447 228.45 237.897 227.761 238.515 227.243C239.132 226.725 239.89 226.402 240.691 226.315C241.492 226.227 242.301 226.379 243.016 226.752C243.731 227.124 244.319 227.7 244.707 228.407C245.094 229.113 245.264 229.919 245.194 230.722C245.123 231.525 244.817 232.289 244.312 232.918C243.808 233.547 243.129 234.012 242.36 234.254C241.849 234.419 241.311 234.481 240.776 234.436C240.242 234.391 239.721 234.24 239.245 233.992C238.769 233.744 238.347 233.404 238.004 232.992C237.661 232.58 237.403 232.103 237.245 231.59Z" fill="white"/>
<path opacity="0.8" d="M237.245 231.59C237.003 230.821 236.995 229.998 237.221 229.224C237.447 228.45 237.897 227.761 238.515 227.243C239.132 226.725 239.89 226.402 240.691 226.315C241.492 226.227 242.301 226.379 243.016 226.752C243.731 227.124 244.319 227.7 244.707 228.407C245.094 229.113 245.264 229.919 245.194 230.722C245.123 231.525 244.817 232.289 244.312 232.918C243.808 233.547 243.129 234.012 242.36 234.254C241.849 234.419 241.311 234.481 240.776 234.436C240.242 234.391 239.721 234.24 239.245 233.992C238.769 233.744 238.347 233.404 238.004 232.992C237.661 232.58 237.403 232.103 237.245 231.59Z" fill="white"/>
<path opacity="0.8" d="M237.245 231.59C237.003 230.821 236.995 229.998 237.221 229.224C237.447 228.45 237.897 227.761 238.515 227.243C239.132 226.725 239.89 226.402 240.691 226.315C241.492 226.227 242.301 226.379 243.016 226.752C243.731 227.124 244.319 227.7 244.707 228.407C245.094 229.113 245.264 229.919 245.194 230.722C245.123 231.525 244.817 232.289 244.312 232.918C243.808 233.547 243.129 234.012 242.36 234.254C241.849 234.419 241.311 234.481 240.776 234.436C240.242 234.391 239.721 234.24 239.245 233.992C238.769 233.744 238.347 233.404 238.004 232.992C237.661 232.58 237.403 232.103 237.245 231.59Z" fill="white"/>
<path opacity="0.8" d="M360.857 288.486C360.615 287.717 360.606 286.894 360.832 286.12C361.058 285.347 361.509 284.657 362.126 284.139C362.744 283.622 363.501 283.298 364.302 283.211C365.104 283.123 365.913 283.275 366.628 283.648C367.342 284.02 367.931 284.596 368.318 285.303C368.706 286.01 368.875 286.815 368.805 287.618C368.735 288.421 368.428 289.186 367.924 289.814C367.42 290.443 366.74 290.908 365.971 291.151C365.461 291.312 364.923 291.371 364.39 291.324C363.856 291.277 363.337 291.126 362.862 290.879C362.387 290.631 361.965 290.293 361.621 289.882C361.277 289.472 361.017 288.997 360.857 288.486Z" fill="white"/>
<path opacity="0.8" d="M365.914 279.381C365.626 278.365 365.743 277.277 366.24 276.345C366.738 275.414 367.578 274.712 368.582 274.388C369.587 274.063 370.679 274.141 371.627 274.605C372.575 275.069 373.306 275.883 373.667 276.876C373.986 277.911 373.885 279.031 373.387 279.992C372.889 280.954 372.032 281.682 371.003 282.018C369.978 282.337 368.869 282.239 367.917 281.745C366.964 281.251 366.245 280.401 365.914 279.381Z" fill="white"/>
<path opacity="0.8" d="M360.857 288.486C360.615 287.717 360.606 286.894 360.832 286.12C361.058 285.347 361.509 284.657 362.126 284.139C362.744 283.622 363.501 283.298 364.302 283.211C365.104 283.123 365.913 283.275 366.628 283.648C367.342 284.02 367.931 284.596 368.318 285.303C368.706 286.01 368.875 286.815 368.805 287.618C368.735 288.421 368.428 289.186 367.924 289.814C367.42 290.443 366.74 290.908 365.971 291.151C365.461 291.312 364.923 291.371 364.39 291.324C363.856 291.277 363.337 291.126 362.862 290.879C362.387 290.631 361.965 290.293 361.621 289.882C361.277 289.472 361.017 288.997 360.857 288.486Z" fill="white"/>
<path opacity="0.8" d="M360.857 288.486C360.615 287.717 360.606 286.894 360.832 286.12C361.058 285.347 361.509 284.657 362.126 284.139C362.744 283.622 363.501 283.298 364.302 283.211C365.104 283.123 365.913 283.275 366.628 283.648C367.342 284.02 367.931 284.596 368.318 285.303C368.706 286.01 368.875 286.815 368.805 287.618C368.735 288.421 368.428 289.186 367.924 289.814C367.42 290.443 366.74 290.908 365.971 291.151C365.461 291.312 364.923 291.371 364.39 291.324C363.856 291.277 363.337 291.126 362.862 290.879C362.387 290.631 361.965 290.293 361.621 289.882C361.277 289.472 361.017 288.997 360.857 288.486Z" fill="white"/>
<path opacity="0.8" d="M237.245 231.59C237.003 230.821 236.995 229.998 237.221 229.224C237.447 228.45 237.897 227.761 238.515 227.243C239.132 226.725 239.89 226.402 240.691 226.315C241.492 226.227 242.301 226.379 243.016 226.752C243.731 227.124 244.319 227.7 244.707 228.407C245.094 229.113 245.264 229.919 245.194 230.722C245.123 231.525 244.817 232.289 244.312 232.918C243.808 233.547 243.129 234.012 242.36 234.254C241.849 234.419 241.311 234.481 240.776 234.436C240.242 234.391 239.721 234.24 239.245 233.992C238.769 233.744 238.347 233.404 238.004 232.992C237.661 232.58 237.403 232.103 237.245 231.59Z" fill="white"/>
<path opacity="0.8" d="M360.857 288.486C360.615 287.717 360.606 286.894 360.832 286.12C361.058 285.347 361.509 284.657 362.126 284.139C362.744 283.622 363.501 283.298 364.302 283.211C365.104 283.123 365.913 283.275 366.628 283.648C367.342 284.02 367.931 284.596 368.318 285.303C368.706 286.01 368.875 286.815 368.805 287.618C368.735 288.421 368.428 289.186 367.924 289.814C367.42 290.443 366.74 290.908 365.971 291.151C365.461 291.312 364.923 291.371 364.39 291.324C363.856 291.277 363.337 291.126 362.862 290.879C362.387 290.631 361.965 290.293 361.621 289.882C361.277 289.472 361.017 288.997 360.857 288.486Z" fill="white"/>
<path opacity="0.8" d="M365.914 279.381C365.626 278.365 365.743 277.277 366.24 276.345C366.738 275.414 367.578 274.712 368.582 274.388C369.587 274.063 370.679 274.141 371.627 274.605C372.575 275.069 373.306 275.883 373.667 276.876C373.986 277.911 373.885 279.031 373.387 279.992C372.889 280.954 372.032 281.682 371.003 282.018C369.978 282.337 368.869 282.239 367.917 281.745C366.964 281.251 366.245 280.401 365.914 279.381Z" fill="white"/>
<path opacity="0.8" d="M360.857 288.486C360.615 287.717 360.606 286.894 360.832 286.12C361.058 285.347 361.509 284.657 362.126 284.139C362.744 283.622 363.501 283.298 364.302 283.211C365.104 283.123 365.913 283.275 366.628 283.648C367.342 284.02 367.931 284.596 368.318 285.303C368.706 286.01 368.875 286.815 368.805 287.618C368.735 288.421 368.428 289.186 367.924 289.814C367.42 290.443 366.74 290.908 365.971 291.151C365.461 291.312 364.923 291.371 364.39 291.324C363.856 291.277 363.337 291.126 362.862 290.879C362.387 290.631 361.965 290.293 361.621 289.882C361.277 289.472 361.017 288.997 360.857 288.486Z" fill="white"/>
<path opacity="0.8" d="M360.857 288.486C360.615 287.717 360.606 286.894 360.832 286.12C361.058 285.347 361.509 284.657 362.126 284.139C362.744 283.622 363.501 283.298 364.302 283.211C365.104 283.123 365.913 283.275 366.628 283.648C367.342 284.02 367.931 284.596 368.318 285.303C368.706 286.01 368.875 286.815 368.805 287.618C368.735 288.421 368.428 289.186 367.924 289.814C367.42 290.443 366.74 290.908 365.971 291.151C365.461 291.312 364.923 291.371 364.39 291.324C363.856 291.277 363.337 291.126 362.862 290.879C362.387 290.631 361.965 290.293 361.621 289.882C361.277 289.472 361.017 288.997 360.857 288.486Z" fill="white"/>
<path opacity="0.8" d="M404.145 139.825C403.903 139.056 403.895 138.233 404.121 137.459C404.346 136.685 404.797 135.996 405.414 135.478C406.032 134.96 406.789 134.637 407.591 134.55C408.392 134.462 409.201 134.614 409.916 134.987C410.63 135.359 411.219 135.935 411.606 136.642C411.994 137.348 412.163 138.154 412.093 138.957C412.023 139.76 411.716 140.524 411.212 141.153C410.708 141.782 410.028 142.247 409.26 142.489C408.749 142.654 408.211 142.716 407.676 142.671C407.141 142.626 406.621 142.475 406.145 142.227C405.669 141.979 405.247 141.639 404.904 141.227C404.56 140.815 404.302 140.338 404.145 139.825Z" fill="white"/>
<path opacity="0.8" d="M404.145 139.825C403.903 139.056 403.895 138.233 404.121 137.459C404.346 136.685 404.797 135.996 405.414 135.478C406.032 134.96 406.789 134.637 407.591 134.55C408.392 134.462 409.201 134.614 409.916 134.987C410.63 135.359 411.219 135.935 411.606 136.642C411.994 137.348 412.163 138.154 412.093 138.957C412.023 139.76 411.716 140.524 411.212 141.153C410.708 141.782 410.028 142.247 409.26 142.489C408.749 142.654 408.211 142.716 407.676 142.671C407.141 142.626 406.621 142.475 406.145 142.227C405.669 141.979 405.247 141.639 404.904 141.227C404.56 140.815 404.302 140.338 404.145 139.825Z" fill="white"/>
<path opacity="0.8" d="M360.857 288.486C360.615 287.717 360.606 286.894 360.832 286.12C361.058 285.347 361.509 284.657 362.126 284.139C362.744 283.622 363.501 283.298 364.302 283.211C365.104 283.123 365.913 283.275 366.628 283.648C367.342 284.02 367.931 284.596 368.318 285.303C368.706 286.01 368.875 286.815 368.805 287.618C368.735 288.421 368.428 289.186 367.924 289.814C367.42 290.443 366.74 290.908 365.971 291.151C365.461 291.312 364.923 291.371 364.39 291.324C363.856 291.277 363.337 291.126 362.862 290.879C362.387 290.631 361.965 290.293 361.621 289.882C361.277 289.472 361.017 288.997 360.857 288.486Z" fill="white"/>
<path opacity="0.8" d="M404.145 139.825C403.903 139.056 403.895 138.233 404.121 137.459C404.346 136.685 404.797 135.996 405.414 135.478C406.032 134.96 406.789 134.637 407.591 134.55C408.392 134.462 409.201 134.614 409.916 134.987C410.63 135.359 411.219 135.935 411.606 136.642C411.994 137.348 412.163 138.154 412.093 138.957C412.023 139.76 411.716 140.524 411.212 141.153C410.708 141.782 410.028 142.247 409.26 142.489C408.749 142.654 408.211 142.716 407.676 142.671C407.141 142.626 406.621 142.475 406.145 142.227C405.669 141.979 405.247 141.639 404.904 141.227C404.56 140.815 404.302 140.338 404.145 139.825Z" fill="white"/>
<path opacity="0.8" d="M360.857 288.486C360.615 287.717 360.606 286.894 360.832 286.12C361.058 285.347 361.509 284.657 362.126 284.139C362.744 283.622 363.501 283.298 364.302 283.211C365.104 283.123 365.913 283.275 366.628 283.648C367.342 284.02 367.931 284.596 368.318 285.303C368.706 286.01 368.875 286.815 368.805 287.618C368.735 288.421 368.428 289.186 367.924 289.814C367.42 290.443 366.74 290.908 365.971 291.151C365.461 291.312 364.923 291.371 364.39 291.324C363.856 291.277 363.337 291.126 362.862 290.879C362.387 290.631 361.965 290.293 361.621 289.882C361.277 289.472 361.017 288.997 360.857 288.486Z" fill="white"/>
<path opacity="0.8" d="M404.145 139.825C403.903 139.056 403.895 138.233 404.121 137.459C404.346 136.685 404.797 135.996 405.414 135.478C406.032 134.96 406.789 134.637 407.591 134.55C408.392 134.462 409.201 134.614 409.916 134.987C410.63 135.359 411.219 135.935 411.606 136.642C411.994 137.348 412.163 138.154 412.093 138.957C412.023 139.76 411.716 140.524 411.212 141.153C410.708 141.782 410.028 142.247 409.26 142.489C408.749 142.654 408.211 142.716 407.676 142.671C407.141 142.626 406.621 142.475 406.145 142.227C405.669 141.979 405.247 141.639 404.904 141.227C404.56 140.815 404.302 140.338 404.145 139.825Z" fill="white"/>
<path opacity="0.8" d="M237.245 231.59C237.003 230.821 236.995 229.998 237.221 229.224C237.447 228.45 237.897 227.761 238.515 227.243C239.132 226.725 239.89 226.402 240.691 226.315C241.492 226.227 242.301 226.379 243.016 226.752C243.731 227.124 244.319 227.7 244.707 228.407C245.094 229.113 245.264 229.919 245.194 230.722C245.123 231.525 244.817 232.289 244.312 232.918C243.808 233.547 243.129 234.012 242.36 234.254C241.849 234.419 241.311 234.481 240.776 234.436C240.242 234.391 239.721 234.24 239.245 233.992C238.769 233.744 238.347 233.404 238.004 232.992C237.661 232.58 237.403 232.103 237.245 231.59Z" fill="white"/>
<path opacity="0.8" d="M404.145 139.825C403.903 139.056 403.895 138.233 404.121 137.459C404.346 136.685 404.797 135.996 405.414 135.478C406.032 134.96 406.789 134.637 407.591 134.55C408.392 134.462 409.201 134.614 409.916 134.987C410.63 135.359 411.219 135.935 411.606 136.642C411.994 137.348 412.163 138.154 412.093 138.957C412.023 139.76 411.716 140.524 411.212 141.153C410.708 141.782 410.028 142.247 409.26 142.489C408.749 142.654 408.211 142.716 407.676 142.671C407.141 142.626 406.621 142.475 406.145 142.227C405.669 141.979 405.247 141.639 404.904 141.227C404.56 140.815 404.302 140.338 404.145 139.825Z" fill="white"/>
<path opacity="0.8" d="M365.914 279.381C365.626 278.365 365.743 277.277 366.24 276.345C366.738 275.414 367.578 274.712 368.582 274.388C369.587 274.063 370.679 274.141 371.627 274.605C372.575 275.069 373.306 275.883 373.667 276.876C373.986 277.911 373.885 279.031 373.387 279.992C372.889 280.954 372.032 281.682 371.003 282.018C369.978 282.337 368.869 282.239 367.917 281.745C366.964 281.251 366.245 280.401 365.914 279.381Z" fill="white"/>
<path opacity="0.8" d="M404.145 139.825C403.903 139.056 403.895 138.233 404.121 137.459C404.346 136.685 404.797 135.996 405.414 135.478C406.032 134.96 406.789 134.637 407.591 134.55C408.392 134.462 409.201 134.614 409.916 134.987C410.63 135.359 411.219 135.935 411.606 136.642C411.994 137.348 412.163 138.154 412.093 138.957C412.023 139.76 411.716 140.524 411.212 141.153C410.708 141.782 410.028 142.247 409.26 142.489C408.749 142.654 408.211 142.716 407.676 142.671C407.141 142.626 406.621 142.475 406.145 142.227C405.669 141.979 405.247 141.639 404.904 141.227C404.56 140.815 404.302 140.338 404.145 139.825Z" fill="white"/>
<path opacity="0.8" d="M404.145 139.825C403.903 139.056 403.895 138.233 404.121 137.459C404.346 136.685 404.797 135.996 405.414 135.478C406.032 134.96 406.789 134.637 407.591 134.55C408.392 134.462 409.201 134.614 409.916 134.987C410.63 135.359 411.219 135.935 411.606 136.642C411.994 137.348 412.163 138.154 412.093 138.957C412.023 139.76 411.716 140.524 411.212 141.153C410.708 141.782 410.028 142.247 409.26 142.489C408.749 142.654 408.211 142.716 407.676 142.671C407.141 142.626 406.621 142.475 406.145 142.227C405.669 141.979 405.247 141.639 404.904 141.227C404.56 140.815 404.302 140.338 404.145 139.825Z" fill="white"/>
<path opacity="0.8" d="M404.145 139.825C403.903 139.056 403.895 138.233 404.121 137.459C404.346 136.685 404.797 135.996 405.414 135.478C406.032 134.96 406.789 134.637 407.591 134.55C408.392 134.462 409.201 134.614 409.916 134.987C410.63 135.359 411.219 135.935 411.606 136.642C411.994 137.348 412.163 138.154 412.093 138.957C412.023 139.76 411.716 140.524 411.212 141.153C410.708 141.782 410.028 142.247 409.26 142.489C408.749 142.654 408.211 142.716 407.676 142.671C407.141 142.626 406.621 142.475 406.145 142.227C405.669 141.979 405.247 141.639 404.904 141.227C404.56 140.815 404.302 140.338 404.145 139.825Z" fill="white"/>
<path opacity="0.8" d="M404.145 139.825C403.903 139.056 403.895 138.233 404.121 137.459C404.346 136.685 404.797 135.996 405.414 135.478C406.032 134.96 406.789 134.637 407.591 134.55C408.392 134.462 409.201 134.614 409.916 134.987C410.63 135.359 411.219 135.935 411.606 136.642C411.994 137.348 412.163 138.154 412.093 138.957C412.023 139.76 411.716 140.524 411.212 141.153C410.708 141.782 410.028 142.247 409.26 142.489C408.749 142.654 408.211 142.716 407.676 142.671C407.141 142.626 406.621 142.475 406.145 142.227C405.669 141.979 405.247 141.639 404.904 141.227C404.56 140.815 404.302 140.338 404.145 139.825Z" fill="white"/>
<path opacity="0.8" d="M360.857 288.486C360.615 287.717 360.606 286.894 360.832 286.12C361.058 285.347 361.509 284.657 362.126 284.139C362.744 283.622 363.501 283.298 364.302 283.211C365.104 283.123 365.913 283.275 366.628 283.648C367.342 284.02 367.931 284.596 368.318 285.303C368.706 286.01 368.875 286.815 368.805 287.618C368.735 288.421 368.428 289.186 367.924 289.814C367.42 290.443 366.74 290.908 365.971 291.151C365.461 291.312 364.923 291.371 364.39 291.324C363.856 291.277 363.337 291.126 362.862 290.879C362.387 290.631 361.965 290.293 361.621 289.882C361.277 289.472 361.017 288.997 360.857 288.486Z" fill="white"/>
<path opacity="0.8" d="M360.857 288.486C360.615 287.717 360.606 286.894 360.832 286.12C361.058 285.347 361.509 284.657 362.126 284.139C362.744 283.622 363.501 283.298 364.302 283.211C365.104 283.123 365.913 283.275 366.628 283.648C367.342 284.02 367.931 284.596 368.318 285.303C368.706 286.01 368.875 286.815 368.805 287.618C368.735 288.421 368.428 289.186 367.924 289.814C367.42 290.443 366.74 290.908 365.971 291.151C365.461 291.312 364.923 291.371 364.39 291.324C363.856 291.277 363.337 291.126 362.862 290.879C362.387 290.631 361.965 290.293 361.621 289.882C361.277 289.472 361.017 288.997 360.857 288.486Z" fill="white"/>
<path opacity="0.8" d="M365.914 279.381C365.626 278.365 365.743 277.277 366.24 276.345C366.738 275.414 367.578 274.712 368.582 274.388C369.587 274.063 370.679 274.141 371.627 274.605C372.575 275.069 373.306 275.883 373.667 276.876C373.986 277.911 373.885 279.031 373.387 279.992C372.889 280.954 372.032 281.682 371.003 282.018C369.978 282.337 368.869 282.239 367.917 281.745C366.964 281.251 366.245 280.401 365.914 279.381Z" fill="white"/>
<path opacity="0.8" d="M404.145 139.825C403.903 139.056 403.895 138.233 404.121 137.459C404.346 136.685 404.797 135.996 405.414 135.478C406.032 134.96 406.789 134.637 407.591 134.55C408.392 134.462 409.201 134.614 409.916 134.987C410.63 135.359 411.219 135.935 411.606 136.642C411.994 137.348 412.163 138.154 412.093 138.957C412.023 139.76 411.716 140.524 411.212 141.153C410.708 141.782 410.028 142.247 409.26 142.489C408.749 142.654 408.211 142.716 407.676 142.671C407.141 142.626 406.621 142.475 406.145 142.227C405.669 141.979 405.247 141.639 404.904 141.227C404.56 140.815 404.302 140.338 404.145 139.825Z" fill="white"/>
<path opacity="0.8" d="M272.815 95.1412C272.574 94.3723 272.565 93.5489 272.791 92.7752C273.017 92.0014 273.467 91.3121 274.085 90.7942C274.703 90.2764 275.46 89.9533 276.261 89.8658C277.062 89.7783 277.871 89.9304 278.586 90.3027C279.301 90.6751 279.89 91.251 280.277 91.9577C280.665 92.6645 280.834 93.4703 280.764 94.2733C280.694 95.0763 280.387 95.8404 279.883 96.4692C279.378 97.0979 278.699 97.5629 277.93 97.8055C277.42 97.9704 276.881 98.0322 276.347 97.9872C275.812 97.9422 275.292 97.7914 274.816 97.5435C274.34 97.2956 273.918 96.9555 273.574 96.5432C273.231 96.1308 272.973 95.6542 272.815 95.1412Z" fill="white"/>
<path opacity="0.8" d="M272.815 95.1412C272.574 94.3723 272.565 93.5489 272.791 92.7752C273.017 92.0014 273.467 91.3121 274.085 90.7942C274.703 90.2764 275.46 89.9533 276.261 89.8658C277.062 89.7783 277.871 89.9304 278.586 90.3027C279.301 90.6751 279.89 91.251 280.277 91.9577C280.665 92.6645 280.834 93.4703 280.764 94.2733C280.694 95.0763 280.387 95.8404 279.883 96.4692C279.378 97.0979 278.699 97.5629 277.93 97.8055C277.42 97.9704 276.881 98.0322 276.347 97.9872C275.812 97.9422 275.292 97.7914 274.816 97.5435C274.34 97.2956 273.918 96.9555 273.574 96.5432C273.231 96.1308 272.973 95.6542 272.815 95.1412Z" fill="white"/>
<path opacity="0.8" d="M272.815 95.1412C272.574 94.3723 272.565 93.5489 272.791 92.7752C273.017 92.0014 273.467 91.3121 274.085 90.7942C274.703 90.2764 275.46 89.9533 276.261 89.8658C277.062 89.7783 277.871 89.9304 278.586 90.3027C279.301 90.6751 279.89 91.251 280.277 91.9577C280.665 92.6645 280.834 93.4703 280.764 94.2733C280.694 95.0763 280.387 95.8404 279.883 96.4692C279.378 97.0979 278.699 97.5629 277.93 97.8055C277.42 97.9704 276.881 98.0322 276.347 97.9872C275.812 97.9422 275.292 97.7914 274.816 97.5435C274.34 97.2956 273.918 96.9555 273.574 96.5432C273.231 96.1308 272.973 95.6542 272.815 95.1412Z" fill="white"/>
<path opacity="0.8" d="M360.857 288.486C360.615 287.717 360.606 286.894 360.832 286.12C361.058 285.347 361.509 284.657 362.126 284.139C362.744 283.622 363.501 283.298 364.302 283.211C365.104 283.123 365.913 283.275 366.628 283.648C367.342 284.02 367.931 284.596 368.318 285.303C368.706 286.01 368.875 286.815 368.805 287.618C368.735 288.421 368.428 289.186 367.924 289.814C367.42 290.443 366.74 290.908 365.971 291.151C365.461 291.312 364.923 291.371 364.39 291.324C363.856 291.277 363.337 291.126 362.862 290.879C362.387 290.631 361.965 290.293 361.621 289.882C361.277 289.472 361.017 288.997 360.857 288.486Z" fill="white"/>
<path opacity="0.8" d="M272.815 95.1412C272.574 94.3723 272.565 93.5489 272.791 92.7752C273.017 92.0014 273.467 91.3121 274.085 90.7942C274.703 90.2764 275.46 89.9533 276.261 89.8658C277.062 89.7783 277.871 89.9304 278.586 90.3027C279.301 90.6751 279.89 91.251 280.277 91.9577C280.665 92.6645 280.834 93.4703 280.764 94.2733C280.694 95.0763 280.387 95.8404 279.883 96.4692C279.378 97.0979 278.699 97.5629 277.93 97.8055C277.42 97.9704 276.881 98.0322 276.347 97.9872C275.812 97.9422 275.292 97.7914 274.816 97.5435C274.34 97.2956 273.918 96.9555 273.574 96.5432C273.231 96.1308 272.973 95.6542 272.815 95.1412Z" fill="white"/>
<path opacity="0.8" d="M360.857 288.486C360.615 287.717 360.606 286.894 360.832 286.12C361.058 285.347 361.509 284.657 362.126 284.139C362.744 283.622 363.501 283.298 364.302 283.211C365.104 283.123 365.913 283.275 366.628 283.648C367.342 284.02 367.931 284.596 368.318 285.303C368.706 286.01 368.875 286.815 368.805 287.618C368.735 288.421 368.428 289.186 367.924 289.814C367.42 290.443 366.74 290.908 365.971 291.151C365.461 291.312 364.923 291.371 364.39 291.324C363.856 291.277 363.337 291.126 362.862 290.879C362.387 290.631 361.965 290.293 361.621 289.882C361.277 289.472 361.017 288.997 360.857 288.486Z" fill="white"/>
<path opacity="0.8" d="M272.815 95.1412C272.574 94.3723 272.565 93.5489 272.791 92.7752C273.017 92.0014 273.467 91.3121 274.085 90.7942C274.703 90.2764 275.46 89.9533 276.261 89.8658C277.062 89.7783 277.871 89.9304 278.586 90.3027C279.301 90.6751 279.89 91.251 280.277 91.9577C280.665 92.6645 280.834 93.4703 280.764 94.2733C280.694 95.0763 280.387 95.8404 279.883 96.4692C279.378 97.0979 278.699 97.5629 277.93 97.8055C277.42 97.9704 276.881 98.0322 276.347 97.9872C275.812 97.9422 275.292 97.7914 274.816 97.5435C274.34 97.2956 273.918 96.9555 273.574 96.5432C273.231 96.1308 272.973 95.6542 272.815 95.1412Z" fill="white"/>
<path opacity="0.8" d="M237.245 231.59C237.003 230.821 236.995 229.998 237.221 229.224C237.447 228.45 237.897 227.761 238.515 227.243C239.132 226.725 239.89 226.402 240.691 226.315C241.492 226.227 242.301 226.379 243.016 226.752C243.731 227.124 244.319 227.7 244.707 228.407C245.094 229.113 245.264 229.919 245.194 230.722C245.123 231.525 244.817 232.289 244.312 232.918C243.808 233.547 243.129 234.012 242.36 234.254C241.849 234.419 241.311 234.481 240.776 234.436C240.242 234.391 239.721 234.24 239.245 233.992C238.769 233.744 238.347 233.404 238.004 232.992C237.661 232.58 237.403 232.103 237.245 231.59Z" fill="white"/>
<path opacity="0.8" d="M272.815 95.1412C272.574 94.3723 272.565 93.5489 272.791 92.7752C273.017 92.0014 273.467 91.3121 274.085 90.7942C274.703 90.2764 275.46 89.9533 276.261 89.8658C277.062 89.7783 277.871 89.9304 278.586 90.3027C279.301 90.6751 279.89 91.251 280.277 91.9577C280.665 92.6645 280.834 93.4703 280.764 94.2733C280.694 95.0763 280.387 95.8404 279.883 96.4692C279.378 97.0979 278.699 97.5629 277.93 97.8055C277.42 97.9704 276.881 98.0322 276.347 97.9872C275.812 97.9422 275.292 97.7914 274.816 97.5435C274.34 97.2956 273.918 96.9555 273.574 96.5432C273.231 96.1308 272.973 95.6542 272.815 95.1412Z" fill="white"/>
<path opacity="0.8" d="M365.914 279.381C365.626 278.365 365.743 277.277 366.24 276.345C366.738 275.414 367.578 274.712 368.582 274.388C369.587 274.063 370.679 274.141 371.627 274.605C372.575 275.069 373.306 275.883 373.667 276.876C373.986 277.911 373.885 279.031 373.387 279.992C372.889 280.954 372.032 281.682 371.003 282.018C369.978 282.337 368.869 282.239 367.917 281.745C366.964 281.251 366.245 280.401 365.914 279.381Z" fill="white"/>
<path opacity="0.8" d="M272.815 95.1412C272.574 94.3723 272.565 93.5489 272.791 92.7752C273.017 92.0014 273.467 91.3121 274.085 90.7942C274.703 90.2764 275.46 89.9533 276.261 89.8658C277.062 89.7783 277.871 89.9304 278.586 90.3027C279.301 90.6751 279.89 91.251 280.277 91.9577C280.665 92.6645 280.834 93.4703 280.764 94.2733C280.694 95.0763 280.387 95.8404 279.883 96.4692C279.378 97.0979 278.699 97.5629 277.93 97.8055C277.42 97.9704 276.881 98.0322 276.347 97.9872C275.812 97.9422 275.292 97.7914 274.816 97.5435C274.34 97.2956 273.918 96.9555 273.574 96.5432C273.231 96.1308 272.973 95.6542 272.815 95.1412Z" fill="white"/>
<path opacity="0.8" d="M237.245 231.59C237.003 230.821 236.995 229.998 237.221 229.224C237.447 228.45 237.897 227.761 238.515 227.243C239.132 226.725 239.89 226.402 240.691 226.315C241.492 226.227 242.301 226.379 243.016 226.752C243.731 227.124 244.319 227.7 244.707 228.407C245.094 229.113 245.264 229.919 245.194 230.722C245.123 231.525 244.817 232.289 244.312 232.918C243.808 233.547 243.129 234.012 242.36 234.254C241.849 234.419 241.311 234.481 240.776 234.436C240.242 234.391 239.721 234.24 239.245 233.992C238.769 233.744 238.347 233.404 238.004 232.992C237.661 232.58 237.403 232.103 237.245 231.59Z" fill="white"/>
<path opacity="0.8" d="M272.815 95.1412C272.574 94.3723 272.565 93.5489 272.791 92.7752C273.017 92.0014 273.467 91.3121 274.085 90.7942C274.703 90.2764 275.46 89.9533 276.261 89.8658C277.062 89.7783 277.871 89.9304 278.586 90.3027C279.301 90.6751 279.89 91.251 280.277 91.9577C280.665 92.6645 280.834 93.4703 280.764 94.2733C280.694 95.0763 280.387 95.8404 279.883 96.4692C279.378 97.0979 278.699 97.5629 277.93 97.8055C277.42 97.9704 276.881 98.0322 276.347 97.9872C275.812 97.9422 275.292 97.7914 274.816 97.5435C274.34 97.2956 273.918 96.9555 273.574 96.5432C273.231 96.1308 272.973 95.6542 272.815 95.1412Z" fill="white"/>
<path opacity="0.8" d="M360.857 288.486C360.615 287.717 360.606 286.894 360.832 286.12C361.058 285.347 361.509 284.657 362.126 284.139C362.744 283.622 363.501 283.298 364.302 283.211C365.104 283.123 365.913 283.275 366.628 283.648C367.342 284.02 367.931 284.596 368.318 285.303C368.706 286.01 368.875 286.815 368.805 287.618C368.735 288.421 368.428 289.186 367.924 289.814C367.42 290.443 366.74 290.908 365.971 291.151C365.461 291.312 364.923 291.371 364.39 291.324C363.856 291.277 363.337 291.126 362.862 290.879C362.387 290.631 361.965 290.293 361.621 289.882C361.277 289.472 361.017 288.997 360.857 288.486Z" fill="white"/>
<path opacity="0.8" d="M360.857 288.486C360.615 287.717 360.606 286.894 360.832 286.12C361.058 285.347 361.509 284.657 362.126 284.139C362.744 283.622 363.501 283.298 364.302 283.211C365.104 283.123 365.913 283.275 366.628 283.648C367.342 284.02 367.931 284.596 368.318 285.303C368.706 286.01 368.875 286.815 368.805 287.618C368.735 288.421 368.428 289.186 367.924 289.814C367.42 290.443 366.74 290.908 365.971 291.151C365.461 291.312 364.923 291.371 364.39 291.324C363.856 291.277 363.337 291.126 362.862 290.879C362.387 290.631 361.965 290.293 361.621 289.882C361.277 289.472 361.017 288.997 360.857 288.486Z" fill="white"/>
<path opacity="0.8" d="M237.245 231.59C237.003 230.821 236.995 229.998 237.221 229.224C237.447 228.45 237.897 227.761 238.515 227.243C239.132 226.725 239.89 226.402 240.691 226.315C241.492 226.227 242.301 226.379 243.016 226.752C243.731 227.124 244.319 227.7 244.707 228.407C245.094 229.113 245.264 229.919 245.194 230.722C245.123 231.525 244.817 232.289 244.312 232.918C243.808 233.547 243.129 234.012 242.36 234.254C241.849 234.419 241.311 234.481 240.776 234.436C240.242 234.391 239.721 234.24 239.245 233.992C238.769 233.744 238.347 233.404 238.004 232.992C237.661 232.58 237.403 232.103 237.245 231.59Z" fill="white"/>
<path opacity="0.8" d="M365.914 279.381C365.626 278.365 365.743 277.277 366.24 276.345C366.738 275.414 367.578 274.712 368.582 274.388C369.587 274.063 370.679 274.141 371.627 274.605C372.575 275.069 373.306 275.883 373.667 276.876C373.986 277.911 373.885 279.031 373.387 279.992C372.889 280.954 372.032 281.682 371.003 282.018C369.978 282.337 368.869 282.239 367.917 281.745C366.964 281.251 366.245 280.401 365.914 279.381Z" fill="white"/>
</g>
</svg>
